/* XPM */
static char *_fdee12a8c9848ace81849188498ac38GXnaFoODtLEwWk2c[] = {
/* columns rows colors chars-per-pixel */
"30 30 162 2 ",
"   c #1A0F25",
".  c #271D5A",
"X  c #302A62",
"o  c #464B74",
"O  c #4D5B7E",
"+  c #57728D",
"@  c #64859C",
"#  c #749FB0",
"$  c #749FAF",
"%  c #62839A",
"&  c #4C597D",
"*  c #454A73",
"=  c #2E2861",
"-  c #271D58",
";  c #1B1029",
":  c #281E5C",
">  c #271939",
",  c #2F2960",
"<  c #464F76",
"1  c #57708C",
"2  c #6B8EA3",
"3  c #6B8FA4",
"4  c #6C91A5",
"5  c #6A8EA3",
"6  c #566D8A",
"7  c #454D75",
"8  c #2E275E",
"9  c #271A3C",
"0  c #2A1E3C",
"q  c #444971",
"w  c #4E5F80",
"e  c #434770",
"r  c #444771",
"t  c #42466E",
"y  c #2B203F",
"u  c #444972",
"i  c #42456E",
"p  c #434670",
"a  c #42446C",
"s  c #2C2140",
"d  c #444770",
"f  c #291D3C",
"g  c #3B3A69",
"h  c #3A3967",
"j  c #2B1F3F",
"k  c #3C3B6B",
"l  c #221532",
"z  c #2A215D",
"x  c #3B3A6B",
"c  c #444772",
"v  c #444872",
"b  c #444873",
"n  c #3A396A",
"m  c #291F5B",
"M  c #221634",
"N  c #2A205F",
"B  c #15081A",
"V  c #1F133D",
"C  c #281D4A",
"Z  c #363155",
"A  c #363255",
"S  c #343051",
"D  c #2F2C4A",
"F  c #343050",
"G  c #353054",
"H  c #352F54",
"J  c #261A48",
"K  c #1D113A",
"L  c #15091C",
"P  c #1E123C",
"I  c #435263",
"U  c #363D52",
"Y  c #3A3D5A",
"T  c #332C4F",
"R  c #2F274E",
"E  c #231642",
"W  c #1A0E29",
"Q  c #190E27",
"!  c #221641",
"~  c #2F254D",
"^  c #393B59",
"/  c #3C415D",
"(  c #4A576D",
")  c #455565",
"_  c #455564",
"`  c #76A2B3",
"'  c #6A8FA4",
"]  c #678BA1",
"[  c #5C7592",
"{  c #475279",
"}  c #312B65",
"|  c #241845",
" . c #231742",
".. c #302964",
"X. c #454F77",
"o. c #5B7391",
"O. c #678AA0",
"+. c #698EA3",
"@. c #75A1B2",
"#. c #78A5B5",
"$. c #556687",
"%. c #566888",
"&. c #536485",
"*. c #4C5A7D",
"=. c #48537A",
"-. c #302851",
";. c #2F264D",
":. c #465078",
">. c #4C5B7D",
",. c #526384",
"<. c #566889",
"1. c #42446E",
"2. c #454A72",
"3. c #485078",
"4. c #342E51",
"5. c #485077",
"6. c #454B73",
"7. c #2A1F4C",
"8. c #291E49",
"9. c #3A386A",
"0. c #41446D",
"q. c #20163E",
"w. c #20153A",
"e. c #2A205D",
"r. c #3A3868",
"t. c #43456E",
"y. c #1B1225",
"u. c #1E152C",
"i. c #2A1E3E",
"p. c #2C2040",
"a. c #2B2040",
"s. c #251B37",
"d. c #1C1427",
"f. c #1D1628",
"g. c #261D38",
"h. c #2D2342",
"j. c #2D2341",
"k. c #1E142B",
"l. c #1C1225",
"z. c #261C56",
"x. c #2F295F",
"c. c #44486F",
"v. c #4B5679",
"b. c #546C87",
"n. c #5F7D93",
"m. c #6E95A6",
"M. c #6F96A7",
"N. c #5E7C93",
"B. c #4A5478",
"V. c #43476F",
"C. c #261C54",
"Z. c #1B1028",
"A. c #6B8EA4",
"S. c #2F2861",
"D. c #1E1428",
"F. c #170D1F",
"G. c #170C1E",
"H. c #211430",
"J. c #291D3B",
"K. c #1D1327",
"L. c #1D1428",
"P. c white",
/* pixels */
"  . X o O + @ # $ % + & * = - ; . X o O + @ # $ % + & * = : ",
"> , < 1 2 3 3 4 4 3 3 5 6 7 8 9 , < 1 2 3 3 4 4 3 3 5 6 7 = ",
"0 q w e r r r r r r r r r w t y q w e r r r r r r r r r w u ",
"0 i p p p p p p p p p p p p a s i p p p p p p p p p p p p d ",
"f g e p p p p p p p p p p p h j g e p p p p p p p p p p p k ",
"l z x c c v b b v c c c c n m M z x c c v b b v c c c c n N ",
"B V C Z A S D D F A Z G H J K L V C Z A S D D F A Z G H J P ",
"I U Y T R E W Q ! ~ T ^ / ( ) I U Y T R E W Q ! ~ T ^ / ( _ ",
"` ' ] [ { } |  ...X.o.O.+.@.#.` ' ] [ { } |  ...X.o.O.+.@.#.",
"$.%.%.&.*.=.-.;.:.>.,.<.%.$.$.$.%.%.&.*.=.-.;.:.>.,.<.%.$.$.",
"1.1.1.1.2.3.Z 4.5.6.1.1.1.1.1.1.1.1.1.2.3.Z 4.5.6.1.1.1.1.1.",
"p p p p p r Z 4.c p p p p p p p p p p p r Z 4.c p p p p p p ",
"p p p p e x 7.8.9.d p p p p p p p p p e x 7.8.9.d p p p p p ",
"0.0.1.i g z q.w.e.r.t.1.1.1.0.0.0.1.i g z q.w.e.r.t.1.1.1.0.",
"y.u.i.p.a.s.d.f.g.h.j.s p.i.k.l.u.i.p.a.s.d.f.g.h.j.s p.i.k.",
"  z.x.c.v.b.n.m.M.N.b.B.V.8 C.Z.z.x.c.v.b.n.m.M.N.b.B.V.8 - ",
"> , < 1 A.3 3 4 4 3 3 2 6 7 8 9 , < 1 A.3 3 4 4 3 3 2 6 7 S.",
"0 q w e r r r r r r r r r w t y q w e r r r r r r r r r w u ",
"0 i p p p p p p p p p p p p a s i p p p p p p p p p p p p d ",
"f g e p p p p p p p p p p p h j g e p p p p p p p p p p p k ",
"l z x c c v b b v c c c c n m M z x c c v b b v c c c c n N ",
"B V C Z A S D D F A Z G H J K L V C Z A S D D F A Z G H J P ",
"I U Y T R E W Q ! ~ T ^ / ( ) I U Y T R E W Q ! ~ T ^ / ( _ ",
"` ' ] [ { } |  ...X.o.O.+.@.#.` ' ] [ { } |  ...X.o.O.+.@.#.",
"$.%.%.&.*.=.-.;.:.>.,.<.%.$.$.$.%.%.&.*.=.-.;.:.>.,.<.%.$.$.",
"1.1.1.1.2.3.Z 4.5.6.1.1.1.1.1.1.1.1.1.2.3.Z 4.5.6.1.1.1.1.1.",
"p p p p p r Z 4.c p p p p p p p p p p p r Z 4.c p p p p p p ",
"p p p p e x 7.8.9.d p p p p p p p p p e x 7.8.9.d p p p p p ",
"0.0.1.i g z q.w.e.r.t.1.1.1.0.0.0.1.i g z q.w.e.r.t.1.1.1.0.",
"l.D.0 0 f l F.G.H.f 0 0 0 J.K.l.D.0 0 f l F.G.H.f 0 0 0 J.L."
};
