/* XPM */
static char *d9327094a0384801ba86205678d147bbt7MNZRbc0Uxi8OqS[] = {
/* columns rows colors chars-per-pixel */
"30 30 93 2 ",
"   c None",
".  c #3B242F",
"X  c #3C2631",
"o  c #3F2832",
"O  c #422932",
"+  c #4A2D33",
"@  c #4E3034",
"#  c #533134",
"$  c #5A3435",
"%  c #613736",
"&  c #653B37",
"*  c #693F37",
"=  c #6D3C38",
"-  c #733F39",
";  c #6C4239",
":  c #754139",
">  c #7B453A",
",  c #7E493A",
"<  c #6C4640",
"1  c #704B43",
"2  c #755147",
"3  c #765349",
"4  c #775E55",
"5  c #79635C",
"6  c #844B3B",
"7  c #894F3C",
"8  c #8D523C",
"9  c #93563D",
"0  c #96583D",
"q  c #995A3E",
"w  c #935643",
"e  c #975841",
"r  c #9C5D42",
"t  c #A05F42",
"y  c #A46146",
"u  c #A96547",
"i  c #A46648",
"p  c #AB6649",
"a  c #AE694B",
"s  c #B46C4D",
"d  c #B86E4F",
"f  c #B16F51",
"g  c #B86F50",
"h  c #AC7150",
"j  c #B37551",
"k  c #BA7151",
"l  c #B67954",
"z  c #BB7D56",
"x  c #BC7A59",
"c  c #C17C59",
"v  c #C3845D",
"b  c #C58C69",
"n  c #C88F6D",
"m  c #D58F64",
"M  c #D58F63",
"N  c #CC9267",
"B  c #D19064",
"V  c #D09569",
"C  c #DB9668",
"Z  c #D2986A",
"A  c #D2986B",
"S  c #D2996B",
"D  c #D79869",
"F  c #D3996C",
"G  c #D49A6C",
"H  c #DB9B6A",
"J  c #DE9C6B",
"K  c #DB9D6C",
"L  c #DD9E6C",
"P  c #DD9F6E",
"I  c #DEA06E",
"U  c #DEA16E",
"Y  c #D3A074",
"T  c #DFA574",
"R  c #E0A26F",
"E  c #E6A571",
"W  c #EBAB75",
"Q  c #EBAC75",
"!  c #ECAC75",
"~  c #ECAD76",
"^  c #EDAD76",
"/  c #EDAE76",
"(  c #EDAE77",
")  c #EEAE77",
"_  c #EDB079",
"`  c #D7A982",
"'  c #D6B58E",
"]  c #DEB188",
"[  c #DEBB93",
"{  c #EFBD89",
"}  c #E4BE91",
"|  c #D7C19D",
" . c #EBC090",
/* pixels */
". X X X X X X X X X X X X X X X X X X X X X X X X X o o     ",
"5 4 3 2 2 2 2 2 2 < ; 1 3 3 2 2 2 2 2 2 2 2 3 2 ; $ + o     ",
"| ' Y Z Z Z Z G V x f v Z F Z Z Z Z Z Z Z Z G N h 6 $ o     ",
"` ]  .{ _ ( ( ( W J m M C E ( ( ( ( ( ( ( Q H v i 6 $ o     ",
"k b [ } T L L I L I D c k B I I L L I I R K z e 6 = # o     ",
"s x n b l j j j j l j r w p j j j j j j j j r 6 > = # o     ",
"g g d p q 9 9 9 9 0 9 , : 6 9 9 9 9 9 9 9 9 6 : - = # o     ",
"g g d p q 9 9 9 9 0 9 , - : 6 8 0 9 7 , 6 9 6 : - = # o     ",
"g d a y q 9 0 9 0 0 9 6 , : > 8 q 0 8 6 7 9 6 : - = # o     ",
"k s t q 0 0 0 0 0 0 0 9 8 > > 8 0 0 9 9 9 9 6 : - = # o     ",
"g s u r q 0 9 9 0 0 0 q 9 , : 6 6 6 , : ; ; & $ = = # o     ",
"g g d p q 9 9 9 0 9 9 9 8 , - : > > & @ + + O + % = # o     ",
"k k k a r 9 0 q 0 8 6 6 , : : 6 7 6 , : ; ; * $ $ # O o     ",
"s s a y 9 8 9 9 8 6 : : > > 6 9 0 0 0 0 0 9 6 - $ O O o     ",
"r e 7 6 , , , , , : : 6 8 8 8 9 0 q 0 q q 0 6 : = % + o     ",
"r e 7 6 , > , > - > 6 8 0 0 0 0 q 0 0 0 q 9 6 : - = # o     ",
"s s a y 9 9 8 6 : 6 9 9 0 0 0 0 0 0 0 0 0 9 6 : - = # o     ",
"k k k a r q 0 > & , 0 q 0 0 9 7 6 6 8 9 9 7 , : - = # o     ",
"g g d p q 0 9 * + : 9 q 0 0 8 , : : 6 9 7 > - - : = # o     ",
"g s u e 6 8 9 * + ; 9 q 0 q 9 8 6 6 8 9 6 - - - : = # o     ",
"k a r 7 , 6 9 * + ; 9 9 9 9 9 9 9 9 0 0 7 > : - : = # o     ",
"k a r 8 8 9 9 * + : 9 7 , , , , 6 9 q 0 9 8 6 : : = # o     ",
"k a r 9 8 9 8 & + * 7 , - - - - > 7 8 8 8 8 > = = = # o     ",
"k a r 8 , > > $ O $ > > - - - - : > > > , > % + % = # o     ",
"a y 9 6 : - - & $ $ % = : : : : - - - - - - % $ $ $ + o     ",
"0 8 > - - - - - = $ + % - - - - - - - - - - - = $ O o o     ",
"* & $ $ $ $ $ $ $ + O + $ $ $ $ $ $ $ $ $ $ $ $ + X X o     ",
"O O O O O O O O X o o O O O O O O O O O O O O O o o o o     ",
"X X X X X X X X o o o o X X X X X X X X X X X o o o o o     ",
"o o o o o o o o o o o o o o o o o o o o o o o o o o o o     "
};
