/* XPM */
static char *d1abfe4e49c84b89921451d2eee96eb5cjP53hdXjMvIvaeA[] = {
/* columns rows colors chars-per-pixel */
"30 30 106 2 ",
"   c None",
".  c #3B242E",
"X  c #3C2530",
"o  c #3F2A32",
"O  c #422C35",
"+  c #453436",
"@  c #473238",
"#  c #4B353C",
"$  c #4C3B3C",
"%  c #503A3F",
"&  c #533D42",
"*  c #544343",
"=  c #594346",
"-  c #5B4649",
";  c #5D494A",
":  c #614C4D",
">  c #64534F",
",  c #644E51",
"<  c #665451",
"1  c #6A5554",
"2  c #6C5A56",
"3  c #6F5C59",
"4  c #715E5A",
"5  c #75625D",
"6  c #79635F",
"7  c #7B6661",
"8  c #7D6A64",
"9  c #806E67",
"0  c #826F68",
"q  c #837169",
"w  c #89756D",
"e  c #8A786F",
"r  c #8C7A70",
"t  c #8C7A71",
"y  c #8D7B71",
"u  c #8D7A72",
"i  c #8D7B72",
"p  c #8E7B72",
"a  c #8F7B73",
"s  c #8E7C72",
"d  c #8B7970",
"f  c #907871",
"g  c #907D75",
"h  c #907E74",
"j  c #917E75",
"k  c #917F75",
"l  c #928076",
"z  c #938076",
"x  c #938176",
"c  c #938177",
"v  c #948177",
"b  c #978177",
"n  c #948277",
"m  c #958278",
"M  c #968379",
"N  c #968479",
"B  c #97847A",
"V  c #998178",
"C  c #98857A",
"Z  c #98857B",
"A  c #98867B",
"S  c #9E857B",
"D  c #99867C",
"F  c #9A877D",
"G  c #9D877D",
"H  c #9A887D",
"J  c #9B887D",
"K  c #9B887E",
"L  c #9C887D",
"P  c #9E897D",
"I  c #9C897E",
"U  c #9D8A7F",
"Y  c #9D8A80",
"T  c #9D8B80",
"R  c #9E8B80",
"E  c #9F8B80",
"W  c #9F8C80",
"Q  c #9F8C81",
"!  c #A48B80",
"~  c #A08D81",
"^  c #A38C80",
"/  c #A08D82",
"(  c #A18D82",
")  c #A18E82",
"_  c #A38F83",
"`  c #A48F83",
"'  c #A78E82",
"]  c #A78F83",
"[  c #A69285",
"{  c #A79285",
"}  c #A79386",
"|  c #A89185",
" . c #A99285",
".. c #AB9286",
"X. c #AC9588",
"o. c #AD9789",
"O. c #AF9789",
"+. c #B3998B",
"@. c #B29B8D",
"#. c #B49C8E",
"$. c #B59D8E",
"%. c #B69E8F",
"&. c #B79E90",
"*. c #B89F90",
"=. c #B9A091",
"-. c #BBA293",
/* pixels */
"                      $ 3 8 ; + # +                         ",
"                    2 : 7 q < = ; >                         ",
"                  -.P w l n 8 7 q w e                       ",
"                  ] G j j i q 0 i w 9                       ",
"                  5 3 < , : - - , < >                       ",
"                  $ # O @ # @ @ O @ $                       ",
"                    O + ; 4 2 - # +                         ",
"                    + $ 5 j w 4 * +                         ",
"                    . @ : 4 2 - # o                         ",
"                  O O O @ @ @ @ O O O                       ",
"                & 1 , - = = = - - - - %                     ",
"              . : V n 9 8 8 8 8 8 8 7 - O                   ",
"              - 7 | { l j j i e e i w 2 = @                 ",
"            & w ~ ] ~ J J C i w w w w 0 4 & .               ",
"          & 2 ! $.~ P Y Q P l i i d w e q : $               ",
"        @ 6 S +.@.~ P Y Q Y F C C j w w w 8 2 #             ",
"        @ q -.$.o.~ Y Y Y Y Y Q Q B i i i i 5 # .           ",
"        O q *.o.~ Q Y Q Q Q Q Q Q P C C B j 5 # .           ",
"      @ = f $.{ Y Y P J J J J J J J J P F j 7 & O           ",
"    O 1 e | &.{ ~ ~ J n l l l l l l l n l s q 4 ; O         ",
"    O 4 ' o.| P M M i q q q q q q q q q q q q 0 < O         ",
"    O - 7 8 6 4 3 3 2 < > > > > > > < < < < < 1 = O         ",
"    o # * = * * * * * * * * * * * * * * * * * * # O         ",
"    O = 4 5 4 3 3 3 4 4 4 4 4 4 4 2 < < < < < 1 = O         ",
"    O < j B M M M M M M M M M M M i q q q q q 0 < O         ",
"    O : 7 i J J J J J J J J J J J M i i i i q 4 ; O         ",
"      @ & 4 i i d d d d d d d d d e w w w e 7 & O           ",
"        O ; 3 3 3 3 3 3 3 3 3 3 3 3 3 3 3 4 < @             ",
"          # # # # # # # # # # # # # # # # # #               ",
"          X X X X X X X X X X X X X X X X X X               "
};
