/* XPM */
static char *_69f2ac0b2fd446e967b70ec6ca486eddZSIrIt1ebQ987iU[] = {
/* columns rows colors chars-per-pixel */
"30 30 121 2 ",
"   c None",
".  c #3C232E",
"X  c #3D2731",
"o  c #3E2832",
"O  c #432731",
"+  c #492731",
"@  c #432932",
"#  c #4B2C33",
"$  c #442F38",
"%  c #532D34",
"&  c #5B2D34",
"*  c #4B3036",
"=  c #45333B",
"-  c #49363F",
";  c #523034",
":  c #5D3335",
">  c #573638",
",  c #5E343B",
"<  c #623636",
"1  c #6B3736",
"2  c #653D36",
"3  c #6C3A37",
"4  c #62353B",
"5  c #643E3B",
"6  c #6D3B38",
"7  c #733D37",
"8  c #733E39",
"9  c #6F4339",
"0  c #784036",
"q  c #754139",
"w  c #7A443A",
"e  c #794A3E",
"r  c #4B3740",
"t  c #473A41",
"y  c #4B3D44",
"u  c #553D45",
"i  c #5E3941",
"p  c #653E45",
"a  c #4B4146",
"s  c #4F494C",
"d  c #52444B",
"f  c #504A4D",
"g  c #5D484E",
"h  c #544C51",
"j  c #5B4F55",
"k  c #585255",
"l  c #5D5258",
"z  c #5C585B",
"x  c #674441",
"c  c #624847",
"v  c #664148",
"b  c #69434A",
"n  c #6C4B4C",
"m  c #7E4D41",
"M  c #74504E",
"N  c #7C504F",
"B  c #63565D",
"V  c #635A5F",
"C  c #7D5754",
"Z  c #655D62",
"A  c #6B5E64",
"S  c #696267",
"D  c #6E656A",
"F  c #6F6C6F",
"G  c #7C6265",
"H  c #76676C",
"J  c #746F73",
"K  c #776E73",
"L  c #7B7176",
"P  c #7D7270",
"I  c #7F7278",
"U  c #7D7579",
"Y  c #7C787B",
"T  c #82493B",
"R  c #83493B",
"E  c #834A3B",
"W  c #804C3A",
"Q  c #834D3B",
"!  c #844A3E",
"~  c #834A3B",
"^  c #884D3A",
"/  c #884D3B",
"(  c #8A4E3A",
")  c #894E3B",
"_  c #8E533C",
"`  c #8E533C",
"'  c #90533B",
"]  c #90533C",
"[  c #91543C",
"{  c #90553C",
"}  c #92543C",
"|  c #92553D",
" . c #92563C",
".. c #93563D",
"X. c #91543C",
"o. c #835144",
"O. c #835143",
"+. c #965A47",
"@. c #945E47",
"#. c #9E5C44",
"$. c #995941",
"%. c #A56246",
"&. c #A46149",
"*. c #A4614A",
"=. c #A46148",
"-. c #AB664C",
";. c #AB654B",
":. c #807175",
">. c #807176",
",. c #80777B",
"<. c #83797E",
"1. c #827A7E",
"2. c #837A7E",
"3. c #9C7B77",
"4. c #877D82",
"5. c #8C8A8E",
"6. c #918E91",
"7. c #9C8C91",
"8. c #9B8D90",
"9. c #9C9498",
"0. c #A49DA1",
/* pixels */
"                    # # # # @ @ @ @ @                       ",
"              # # ; Q { { _ w 8 8 6 : # @                   ",
"            > +.%.Q * 9 _ q 8 8 6 # e *.6 # @               ",
"        X 5 *.! 8 6 # 9 _ q 8 3 & @ 2 { w 1 % @             ",
"        # : 8 8 8 1 @ 6 / 7 3 1 & O < / 8 1 & @             ",
"      @ q / 6 & 4 v u n N v v p i u u , & 1 3 < # o         ",
"      @ < 3 & v G <.<.9.0.4.<.U K ,.K V b , : 8 ; X         ",
"      @ < 1 4 7.I X X A L $ . y Z - . r <.B # 6 ; X         ",
"      @ < 1 4 >.A X X B D $ . t k = . = V d # 6 ; X         ",
"      @ < 3 , H B X X A L = . d D t . $ s t # 6 ; X         ",
"      @ < 1 4 >.A X X j Z $ . y V - . $ f t # 6 ; X         ",
"      @ < 3 , A Z d d Z S y = d z a = y h t # 6 ; X         ",
"      @ < 7 < g l l l l h a a d j d a y y = # 6 ; X         ",
"      @ < q 8 : # + X ; < ; # + + O ; < # + % 6 ; X         ",
"      @ < w E w 7 < @ q { w 3 < & @ 6 { 7 1 3 8 ; X         ",
"      @ < E { w 8 6 # e #.w 8 3 & @ 2 { w 7 7 8 % X         ",
"      @ < E { w 8 6 @ o.-.w 8 3 & O 2 ' 0 C G c * X         ",
"      @ < E { w 8 6 @ O.;.w 8 8 1 @ 2 @.3.8.6.Y d .         ",
"      @ < E { w 8 6 # o.-.w 8 q 8 # 2 @.P 5.5.F y .         ",
"      @ < E { w 8 6 @ e $.w 8 q 8 # 2 _ 9 M C x * X         ",
"      @ < w w w 8 6 @ 9 _ q 8 q 8 # 2 { w 7 7 8 % X         ",
"      @ < q 8 8 q 6 @ 9 ] q 8 q 8 # 2 { w 8 8 8 ; X         ",
"      @ < q 8 8 q 6 @ 9 _ q 8 6 : @ 2 { w 8 8 < # o         ",
"      @ < 8 q / E 6 @ m *.w 8 3 & O 2 { w 8 8 6 # X         ",
"      @ < q 8 w w 6 @ O.;.w 8 8 6 # 2 { w 8 8 8 ; X         ",
"      @ < q 8 8 q 6 @ q ..q 8 q 8 # 2 { w 8 8 8 ; X         ",
"      @ < q 8 8 8 6 @ 9 ] q 8 6 & @ 2 { w 8 6 : # o         ",
"      @ < 6 & & & & @ 9 / < & & & @ 2 ` 1 & & & # o         ",
"      @ % & & & & % @ % & & & & % @ # & & & & & # o         ",
"      o @ @ @ @ @ @ o @ @ @ @ @ @ @ @ @ @ @ @ @ @ o         "
};
