/* XPM */
static char *d1e79b1c80574672d4b2ce6253d2fdd98mSqGYkRBQ3dZQb3[] = {
/* columns rows colors chars-per-pixel */
"30 30 7 1 ",
"  c #170C1C",
". c #281E5C",
"X c #434670",
"o c #546D89",
"O c #739DAE",
"+ c #271936",
"@ c white",
/* pixels */
" ..XXooOOOooXX.. ..XXooOOOooXX",
"+.XoOOOOOOOOOoX.+.XoOOOOOOOOOo",
"+XoXXXXXXXXXXXoX+XoXXXXXXXXXXX",
"+XXXXXXXXXXXXXXX+XXXXXXXXXXXXX",
"+XXXXXXXXXXXXXXX+XXXXXXXXXXXXX",
"+.XXXXXXXXXXXXX.+.XXXXXXXXXXXX",
" ..XXXXXXXXXXX.. ..XXXXXXXXXXX",
"  ++++   ++++++   ++++   +++++",
"OooXX.. ..XXooOOOooXX.. ..XXoo",
"OOOOoX.+.XoOOOOOOOOOoX.+.XoOOO",
"XXXXXoX+XoXXXXXXXXXXXoX+XoXXXX",
"XXXXXXX+XXXXXXXXXXXXXXX+XXXXXX",
"XXXXXXX+XXXXXXXXXXXXXXX+XXXXXX",
"XXXXXX.+.XXXXXXXXXXXXX.+.XXXXX",
"XXXXX.. ..XXXXXXXXXXX.. ..XXXX",
"  ++++   ++++++   ++++   +++++",
" ..XXooOOOooXX.. ..XXooOOOooXX",
"+.XoOOOOOOOOOoX.+.XoOOOOOOOOOo",
"+XoXXXXXXXXXXXoX+XoXXXXXXXXXXX",
"+XXXXXXXXXXXXXXX+XXXXXXXXXXXXX",
"+XXXXXXXXXXXXXXX+XXXXXXXXXXXXX",
"+.XXXXXXXXXXXXX.+.XXXXXXXXXXXX",
" ..XXXXXXXXXXX.. ..XXXXXXXXXXX",
"  ++++   ++++++   ++++   +++++",
"OooXX.. ..XXooOOOooXX.. ..XXoo",
"OOOOoX.+.XoOOOOOOOOOoX.+.XoOOO",
"XXXXXoX+XoXXXXXXXXXXXoX+XoXXXX",
"XXXXXXX+XXXXXXXXXXXXXXX+XXXXXX",
"XXXXXXX+XXXXXXXXXXXXXXX+XXXXXX",
"XXXXXX.+.XXXXXXXXXXXXX.+.XXXXX"
};
