/* XPM */
static char *c59273e49489420692c30cfc509f2750UN0K61YgFf4lCJ7H[] = {
/* columns rows colors chars-per-pixel */
"30 30 201 2 ",
"   c None",
".  c #080909",
"X  c #141414",
"o  c #181919",
"O  c #2A0000",
"+  c #2C2C2C",
"@  c #202324",
"#  c #352423",
"$  c #2D3132",
"%  c #3B3B3B",
"&  c #363333",
"*  c #480000",
"=  c #5B0000",
"-  c #540202",
";  c #4F1A1A",
":  c #610C0C",
">  c #6F0B0B",
",  c #7C0000",
"<  c #730000",
"1  c #7C1C1C",
"2  c #442929",
"3  c #402F30",
"4  c #483A3A",
"5  c #523D3D",
"6  c #542828",
"7  c #653333",
"8  c #6C3B3B",
"9  c #623839",
"0  c #614C01",
"q  c #4F4130",
"w  c #594237",
"e  c #6A463B",
"r  c #6F3F40",
"t  c #3E4244",
"y  c #464747",
"u  c #494B4B",
"i  c #5C4F4D",
"p  c #55595A",
"a  c #4D5455",
"s  c #6F4242",
"d  c #795556",
"f  c #704545",
"g  c #7B6F53",
"h  c #77775D",
"j  c #5E6060",
"k  c #626464",
"l  c #64696B",
"z  c #6B6B6B",
"x  c #616769",
"c  c #786A67",
"v  c #676D70",
"b  c #6C7273",
"n  c #72797A",
"m  c #797D7E",
"M  c #727677",
"N  c #840202",
"B  c #8A0000",
"V  c #8D0E0E",
"C  c #930000",
"Z  c #990000",
"A  c #960D0D",
"S  c #A50202",
"D  c #AC0101",
"F  c #B20000",
"G  c #BD0000",
"H  c #B10808",
"J  c #B71414",
"K  c #AE350C",
"L  c #802424",
"P  c #9D3D3D",
"I  c #B63030",
"U  c #CD0000",
"Y  c #C50404",
"T  c #DA0202",
"R  c #D10202",
"E  c #C21414",
"W  c #E70202",
"Q  c #F60C0C",
"!  c #9C710E",
"~  c #A57100",
"^  c #B07E12",
"/  c #826830",
"(  c #8C782D",
")  c #805E5E",
"_  c #985842",
"`  c #89704F",
"'  c #8C7D58",
"]  c #B9684E",
"[  c #866869",
"{  c #857F70",
"}  c #927778",
"|  c #8C756E",
" . c #648752",
".. c #56B07F",
"X. c #46A473",
"o. c #AC9200",
"O. c #B29813",
"+. c #BD8C2A",
"@. c #AEAA3F",
"#. c #B8B924",
"$. c #D19A0F",
"%. c #C89D09",
"&. c #DAA704",
"*. c #D9B402",
"=. c #C3A31A",
"-. c #EAB801",
";. c #CFCA0D",
":. c #E7CB00",
">. c #E8D700",
",. c #FEDA00",
"<. c #F6C900",
"1. c #FEEB00",
"2. c #FFE200",
"3. c #FFF500",
"4. c #FFFE00",
"5. c #AB9847",
"6. c #99856A",
"7. c #979073",
"8. c #A0916B",
"9. c #B28B7F",
"0. c #A09572",
"q. c #BA9C67",
"w. c #B7A479",
"e. c #A4A66F",
"r. c #7E8284",
"t. c #808485",
"y. c #848B8D",
"u. c #9A8989",
"i. c #878F91",
"p. c #8A8F90",
"a. c #8C9394",
"s. c #8F9698",
"d. c #919494",
"f. c #929798",
"g. c #949B9C",
"h. c #9B9E9E",
"j. c #9D9697",
"k. c #A48E8E",
"l. c #A49C8A",
"z. c #A29694",
"x. c #A29A9C",
"c. c #A89696",
"v. c #B09A9A",
"b. c #95B09D",
"n. c #B1BF9F",
"m. c #A6AF92",
"M. c #9B9FA0",
"N. c #9DA3A4",
"B. c #9FA6A8",
"V. c #98ABA6",
"C. c #A1A5A6",
"Z. c #A5AAAC",
"A. c #ABABAC",
"S. c #A5A9A5",
"D. c #B6ADAC",
"F. c #A6AEB0",
"G. c #ABB3B4",
"H. c #AEB7B9",
"J. c #B3B4B4",
"K. c #B4BBBC",
"L. c #BBBCBD",
"P. c #A6BFA7",
"I. c #CDB884",
"U. c #D2A292",
"Y. c #D0BD8E",
"T. c #E2A48F",
"R. c #C7B9B7",
"E. c #DCC48A",
"W. c #ECD49B",
"Q. c #E8CC8C",
"!. c #C7C9A7",
"~. c #E4CEA0",
"^. c #F9E4B3",
"/. c #B9BEC0",
"(. c #B5C1C4",
"). c #BCC2C3",
"_. c #BBC6C9",
"`. c #C1C4C4",
"'. c #C4CBCC",
"]. c #CBCECE",
"[. c #CBC4C2",
"{. c #CDCFD0",
"}. c #CBD3D5",
"|. c #CED6D8",
" X c #CFD8DA",
".X c #D1D4D4",
"XX c #D1D7D9",
"oX c #D3DADC",
"OX c #DDDCDD",
"+X c #FAEAC3",
"@X c #E3E0DE",
"#X c #DDDFE2",
"$X c #DDE3E4",
"%X c #E1E5E6",
"&X c #E3E7E8",
"*X c #E6EAEB",
"=X c #ECEDED",
"-X c #EBEFF0",
";X c #EFF3F3",
":X c #FDFEFE",
">X c #F9F8F7",
/* pixels */
"                  V J E :                                   ",
"              A Y T W Q S                                   ",
"          : H R U U G T T                                   ",
"        - D Y G D F Z D W B                                 ",
"        B F S S C B N 1 I P z                               ",
"      - Z Z C , L | R.OX;X=X].A.g.L.*X*X].Z.M               ",
"      = B , > [ .X;X:X:XOXJ.`.].p x %X>X%Xr.B.h.            ",
"      - < : u.&X-X;X*XJ.Z.r.C.%Xy . f.>X*Xp l |.a.          ",
"      * = c $X&X*XOXh.).oXt o '.J.. $ XX;Xy.t H.i.p         ",
"      O ; L.$X$XoXf.g.b }.N.. j %Xz o Z.;X).v G.n m         ",
"        4 '.oXoXg.G.K.@ m oXp & XXXXh.l.6.' 7.S.i.y.        ",
"        a (.}.H.y.|. Xn + '.}.Z.l.5.=.*.:.>.>.;.@.h         ",
"          y.N.h.p.Z.}.'.g.G.e.#.>.1.3.4.4.4.4.3.,.o.0       ",
"          r.=X:X$Xg.s.K.0.O.:.3.3.2.&.-.,.1.1.1.1.o.        ",
"          `.:X>X*X_.n g ^ %.( O.&.*.( q.+.$.-.<.,.*.        ",
"          N.*X$X|.(.m 8.w.P.X...w.I.Y.+X~.m. ./ ! ~   A.XXJ.",
"          p F._.(.B.y.).l.V.b.!.^.+X+X+X^.n.V.K.    d.|.XXN.",
"              b l l ).*X=X].{ Y.W.W.I.E.Q.l.$XXX  d.}.|.C.  ",
"                9.R.A.K.oX).w q 6.` /     z /.a.M '.}.C.    ",
"    x.u.u.A.f.y c U.[.{.D._ K e | i             ).}.C.      ",
"M.} s f 9 s D.p.+ z.@X:X>XT.] # 3 9 4         K.}.C.        ",
"x.r u.OXu.7 [ K.5 c k.v.c.J.L.& 6 3 l `.`.r.M N.N.          ",
"j.8 z.oXu.7 ) K.4 & # 2 # k f.%     a.}.XXN.r.z             ",
"M.d s d 8 8 x.N.u & X     X + %       B.Z.r.K.f.            ",
"  j.[ d [ j.N.a.% X         X % m       k C.N.              ",
"      N.B.r.N.G.k             M.%X].  z z                   ",
"          f.$XXXN.            K.oX`.                        ",
"    `.].S.N.'.Z.              Z.).C.J..XL.                  ",
"  ).=X&X|.G.G.K.              ).B.(.oX*X&XC.                ",
"  a.g.f.a.y.M y.              t.n y.i.a.g.                  "
};
